 http://img813.imageshack.us/img813/65/c91073940thechronicleso.jpg

Country.......: USA, Slovenia, Poland, Czech Republic
Genre.........: Fantasy, Adventure, Family, Action
Date release..: 09.05.2008 [World]
Director......: Andrew Adamson
Writers.......: Andrew Adamson, Christopher Markus
Duration......: 144 min.
More..........: http://www.imdb.com/title/tt0499448
Trailer.......: http://www.imdb.com/video/imdb/vi1793261849
Trailer.......:

Pilot :
The Pevensie siblings return to Narnia, where they are enlisted to once again help ward off an evil king and restore the rightful heir to the land's throne, Prince Caspian.

Cats :
Ben Barnes   	 ...  	Prince Caspian
Georgie Henley 	... 	Lucy Pevensie
Skandar Keynes 	... 	Edmund Pevensie
William Moseley 	... 	Peter Pevensie
Anna Popplewell 	... 	Susan Pevensie
Sergio Castellitto 	... 	Miraz
Peter Dinklage 	... 	Trumpkin
Warwick Davis 	... 	Nikabrik
Vincent Grass 	... 	Doctor Cornelius
Pierfrancesco Favino 	... 	General Glozelle
Cornell John 	... 	Glenstorm (as Cornell S. John)
Damian Alcázar 	... 	Lord Sopespian (as Damian Alcazar)
Alicia Borrachero 	... 	Prunaprismia
Simon Andreu 	... 	Lord Scythley (as Simon Andreu)
Predrag Bjelac 	... 	Lord Donnon (as Pedja Bjelac) 

Data Technical :
!!! SAMPLE !!!
Audio.....: Dubbing Polish
Subtitles.: None
[ CD1 ]
Format                           : AVI
Format/Info                      : Audio Video Interleave
File size                        : 700 MiB
Duration                         : 1h 20mn
Overall bit rate                 : 1 212 Kbps
Writing application              : VirtualDubMod 1.5.10.2 (build 2540/release)
Writing library                  : VirtualDubMod build 2540/release
Video
ID                               : 0
Format                           : MPEG-4 Visual
Format profile                   : Advanced Simple@L5
Format settings, BVOP            : Yes
Format settings, QPel            : No
Format settings, GMC             : No warppoints
Format settings, Matrix          : Default (MPEG)
Codec ID                         : XVID
Codec ID/Hint                    : XviD
Duration                         : 1h 20mn
Bit rate                         : 818 Kbps
Width                            : 640 pixels
Height                           : 272 pixels
Display aspect ratio             : 2.35:1
Frame rate                       : 25.000 fps
Color space                      : YUV
Chroma subsampling               : 4:2:0
Bit depth                        : 8 bits
Scan type                        : Progressive
Bits/(Pixel*Frame)               : 0.188
Stream size                      : 472 MiB (68%)
Writing library                  : XviD 1.2.0.dev47 (UTC 2006-11-01)
Audio
ID                               : 1
Format                           : AC-3
Format/Info                      : Audio Coding 3
Mode extension                   : CM (complete main)
Codec ID                         : 2000
Duration                         : 1h 20mn
Bit rate mode                    : Constant
Bit rate                         : 384 Kbps
Channel(s)                       : 6 channels
Channel positions                : Front: L C R, Side: L R, LFE
Sampling rate                    : 48.0 KHz
Bit depth                        : 16 bits
Stream size                      : 222 MiB (32%)
Alignment                        : Split accross interleaves
Interleave, duration             : 40 ms (1.00 video frame)
Interleave, preload duration     : 500 ms
[ CD2 ]
Format                           : AVI
Format/Info                      : Audio Video Interleave
File size                        : 700 MiB
Duration                         : 1h 3mn
Overall bit rate                 : 1 551 Kbps
Writing application              : VirtualDubMod 1.5.10.2 (build 2540/release)
Writing library                  : VirtualDubMod build 2540/release
Video
ID                               : 0
Format                           : MPEG-4 Visual
Format profile                   : Advanced Simple@L5
Format settings, BVOP            : Yes
Format settings, QPel            : No
Format settings, GMC             : No warppoints
Format settings, Matrix          : Default (MPEG)
Codec ID                         : XVID
Codec ID/Hint                    : XviD
Duration                         : 1h 3mn
Bit rate                         : 1 157 Kbps
Width                            : 640 pixels
Height                           : 272 pixels
Display aspect ratio             : 2.35:1
Frame rate                       : 25.000 fps
Color space                      : YUV
Chroma subsampling               : 4:2:0
Bit depth                        : 8 bits
Scan type                        : Progressive
Bits/(Pixel*Frame)               : 0.266
Stream size                      : 522 MiB (75%)
Writing library                  : XviD 1.2.0.dev47 (UTC 2006-11-01)
Audio
ID                               : 1
Format                           : AC-3
Format/Info                      : Audio Coding 3
Mode extension                   : CM (complete main)
Codec ID                         : 2000
Duration                         : 1h 3mn
Bit rate mode                    : Constant
Bit rate                         : 384 Kbps
Channel(s)                       : 6 channels
Channel positions                : Front: L C R, Side: L R, LFE
Sampling rate                    : 48.0 KHz
Bit depth                        : 16 bits
Stream size                      : 173 MiB (25%)
Alignment                        : Split accross interleaves
Interleave, duration             : 40 ms (1.00 video frame)
Interleave, preload duration     : 500 ms

Screen : 
http://img163.imageshack.us/img163/7225/thechroniclesofnarniaprb.jpg 
http://img834.imageshack.us/img834/2033/thechroniclesofnarniapru.jpg 
http://img861.imageshack.us/img861/397/thechroniclesofnarniapr.jpg 
http://img90.imageshack.us/img90/397/thechroniclesofnarniapr.jpg 
http://img862.imageshack.us/img862/397/thechroniclesofnarniapr.jpg